# AST/ASF file generated using VICON BodyLanguage
# -----------------------------------------------
:version 1.10
:name VICON
:units
  mass 1.0
  length 0.45
  angle deg
:documentation
   .ast/.asf automatically generated from VICON data using
   VICON BodyBuilder and BodyLanguage model FoxedUp or BRILLIANT.MOD
:root
   order TX TY TZ RX RY RZ
   axis XYZ
   position 0 0 0  
   orientation 0 0 0 
:bonedata
  begin
     id 1 
     name lhipjoint
     direction 0.621036 -0.695554 0.361275 
     length 2.46325 
     axis 0 0 0  XYZ
  end
  begin
     id 2 
     name lfemur
     direction 0.34202 -0.939693 0  
     length 6.54784  
     axis 0 0 20  XYZ
    dof rx ry rz
    limits (-160.0 20.0)
           (-70.0 70.0)
           (-60.0 70.0)
  end
  begin
     id 3 
     name ltibia
     direction 0.34202 -0.939693 0   
     length 7.84737   
     axis 0 0 20   XYZ
    dof rx
    limits (-10.0 170.0)
  end
  begin
     id 4 
     name lfoot
     direction 0.0790693 -0.217241 0.97291   
     length 2.59747   
     axis -90 7.62852e-016 20   XYZ
    dof rx rz
    limits (-45.0 90.0)
           (-70.0 20.0)
  end
  begin
     id 5 
     name ltoes
     direction 1.53572e-011 -4.21898e-011 1   
     length 1.29919   
     axis -90 7.62852e-016 20   XYZ
    dof rx
    limits (-90.0 20.0)
  end
  begin
     id 6 
     name rhipjoint
     direction -0.602353 -0.708375 0.367935   
     length 2.41867  
     axis 0 0 0  XYZ 
  end
  begin
     id 7 
     name rfemur
     direction -0.34202 -0.939693 0   
     length 6.92065   
     axis 0 0 -20   XYZ
    dof rx ry rz
    limits (-160.0 20.0)
           (-70.0 70.0)
           (-70.0 60.0)
  end
  begin
     id 8 
     name rtibia
     direction -0.34202 -0.939693 0   
     length 7.88883   
     axis 0 0 -20   XYZ
    dof rx
    limits (-10.0 170.0)
 end
 begin
     id 9 
     name rfoot
     direction -0.0768692 -0.211196 0.974416   
     length 2.43714  
     axis -90 -7.62852e-016 -20   XYZ
    dof rx rz
    limits (-45.0 90.0)
           (-20.0 70.0)
  end
  begin
     id 10 
     name rtoes
     direction -1.53575e-011 -4.21933e-011 1   
     length 1.22113   
     axis -90 -7.62852e-016 -20   XYZ
    dof rx
    limits (-90.0 20.0)
  end
  begin
     id 11 
     name lowerback
     direction 0.0197937 0.98943 -0.143655   
     length 2.16931   
     axis 0 0 0   XYZ
    dof rx ry rz
    limits (-20.0 45.0)
           (-30.0 30.0)
           (-30.0 30.0)
  end
  begin
     id 12 
     name upperback
     direction -0.00183968 0.999975 0.00684288   
     length 2.17221   
     axis 0 0 0   XYZ
    dof rx ry rz
    limits (-20.0 45.0)
           (-30.0 30.0)
           (-30.0 30.0)
  end
  begin
     id 13 
     name thorax
     direction -0.00950244 0.997208 0.0740685   
     length 2.22549   
     axis 0 0 0   XYZ
    dof rx ry rz
    limits (-20.0 45.0)
           (-30.0 30.0)
           (-30.0 30.0)
  end
  begin
     id 14 
     name lowerneck
     direction 0.0218238 0.996215 0.0841425   
     length 1.77269   
     axis 0 0 0   XYZ
    dof rx ry rz
    limits (-20.0 45.0)
           (-30.0 30.0)
           (-30.0 30.0)
  end
  begin
     id 15 
     name upperneck
     direction -0.00430652 0.994214 -0.107332   
     length 1.76534   
     axis 0 0 0   XYZ
    dof rx ry rz
    limits (-20.0 45.0)
           (-30.0 30.0)
           (-30.0 30.0)
  end
  begin
     id 16
     name head
     direction -0.00328946 0.998959 -0.0454998  
     length 1.82634  
     axis 0 0 0   XYZ
    dof rx ry rz
    limits (-20.0 45.0)
           (-30.0 30.0)
           (-30.0 30.0)
  end
  begin
     id 17 
     name lclavicle
     direction 0.970962 0.239191 0.00450212  
     length 3.84872  
     axis 0 0 0   XYZ
    dof ry rz
    limits (-20.0 10.0)
           (0.0 20.0)
  end
  begin
     id 18 
     name lhumerus
     direction 1 -4.48966e-011 5.74696e-028   
     length 5.22771   
     axis 180 -30 -90   XYZ
    dof rx ry rz
    limits (-60.0 90.0)
           (-90.0 90.0)
           (-90.0 90.0)
  end
  begin
     id 19
     name lradius
     direction 1 -4.4896e-011 4.25109e-027   
     length 3.45251   
     axis 180 -30 -90   XYZ
    dof rx
    limits (-10.0 170.0)
  end
  begin
     id 20
     name lwrist
     direction 1 -4.48971e-011 1.15382e-027   
     length 1.72626   
     axis -5.52449e-016 90 90   XYZ
    dof ry
    limits (-180.0 0.0)
 end
  begin
     id 21 
     name lhand
     direction 1 -4.49034e-011 2.30765e-027   
     length 0.552119   
     axis -1.47248e-015 90 90   XYZ
    dof rx rz
    limits (-90.0 90.0)
           (-45.0 45.0)
  end
  begin
     id 22 
     name lfingers
     direction 1 -4.48951e-011 4.61529e-027   
     length 0.445133   
     axis -2.94495e-015 90 90   XYZ
    dof rx
    limits (0.0 90.0)
  end
  begin
     id 23
     name lthumb
     direction 0.707107 -6.34991e-011 0.707107   
     length 0.639124   
     axis -90 45 2.85299e-015   XYZ
    dof rx rz
    limits (-45.0 45.0)
           (-45.0 45.0)
  end
  begin
     id 24 
     name rclavicle
     direction -0.97424 0.222511 -0.0366699   
     length 3.73439  
     axis 0 0 0   XYZ 
    dof ry rz
    limits (-10.0 20.0)
           (-20.0 0.0)
  end
  begin
     id 25 
     name rhumerus
     direction -1 -4.48956e-011 -4.97258e-028  
     length 5.2398   
     axis 180 30 90   XYZ
    dof rx ry rz
    limits (-90.0 60.0)
           (-90.0 90.0)
           (-90.0 90.0)
  end
  begin
     id 26 
     name rradius
     direction -1 -4.4897e-011 -1.72611e-027   
     length 3.48042   
     axis 180 30 90   XYZ
    dof rx
    limits (-10.0 170.0)
  end
  begin
     id 27 
     name rwrist
     direction -1 -4.48976e-011 1.15382e-027   
     length 1.74021   
     axis -5.52449e-016 -90 -90   XYZ
    dof ry
    limits (-180.0 0.0)
  end
  begin
     id 28
     name rhand
     direction -1 -4.48963e-011 2.30765e-027   
     length 0.618713   
     axis -1.47248e-015 -90 -90   XYZ
    dof rx rz
    limits (-90.0 90.0)
           (-45.0 45.0)
  end
  begin
     id 29
     name rfingers
     direction -1 -4.4888e-011 4.61529e-027   
     length 0.498823   
     axis -2.94495e-015 -90 -90   XYZ
    dof rx
    limits (0.0 90.0)
  end
  begin
     id 30
     name rthumb
     direction -0.707107 -6.34968e-011 0.707107   
     length 0.716213   
     axis -90 -45 -2.85299e-015   XYZ
    dof rx rz
    limits (-45.0 45.0)
           (-45.0 45.0)
  end
:hierarchy
  begin
    root lhipjoint rhipjoint lowerback
    lhipjoint lfemur
    lfemur ltibia
    ltibia lfoot
    lfoot ltoes
    rhipjoint rfemur
    rfemur rtibia
    rtibia rfoot
    rfoot rtoes
    lowerback upperback
    upperback thorax
    thorax lowerneck lclavicle rclavicle
    lowerneck upperneck
    upperneck head
    lclavicle lhumerus
    lhumerus lradius
    lradius lwrist
    lwrist lhand lthumb
    lhand lfingers
    rclavicle rhumerus
    rhumerus rradius
    rradius rwrist
    rwrist rhand rthumb
    rhand rfingers
  end

#!OML:ASF G:\JayActor3\Patient Classification 1\Patient 1\Session 5\male.ASF
:FULLY-SPECIFIED
:DEGREES
136
root 49.5529 16.1418 -5.48051 131.465 -87.9564 -134.308
lowerback -1.95941 -0.258235 2.97976
upperback 1.49548 -0.430919 -0.475683
thorax 2.61061 -0.157535 -2.17798
lowerneck -5.07599 -0.287212 0.720725
upperneck 1.82004 -0.5847 3.8889
head 1.43486 -0.22171 1.07579
rclavicle 6.18717e-015 -2.5842e-015
rhumerus -34.9411 -12.7869 -83.0817
rradius 25.7487
rwrist 2.75944
rhand -19.0624 -7.20973
rfingers 7.12502
rthumb 7.24496 -37.0657
lclavicle 6.18717e-015 -2.5842e-015
lhumerus -35.1272 9.09603 80.5035
lradius 23.0881
lwrist 14.4718
lhand -17.9633 12.6494
lfingers 7.12502
lthumb 8.30574 42.4662
rfemur -5.51146 6.70275 24.0345
rtibia 35.4271
rfoot -27.2222 -12.551
rtoes 1.6757
lfemur 2.26211 4.64523 -16.2814
ltibia 20.0662
lfoot -17.7283 4.53553
ltoes -6.48158
137
root 49.5248 16.1539 -5.47612 131.994 -87.9589 -134.812
lowerback -1.97746 -0.264071 2.93689
upperback 1.45307 -0.436929 -0.479017
thorax 2.57688 -0.162179 -2.1575
lowerneck -5.13109 -0.285657 0.713128
upperneck 1.89201 -0.584821 3.86989
head 1.46752 -0.220267 1.07164
rclavicle 6.37975e-015 -1.98785e-015
rhumerus -34.9798 -12.8332 -83.0452
rradius 25.6993
rwrist 2.78732
rhand -19.083 -7.26035
rfingers 7.12502
rthumb 7.22505 -37.117
lclavicle 6.37975e-015 -1.98785e-015
lhumerus -35.2152 9.25251 80.3795
lradius 23.0175
lwrist 14.3898
lhand -17.9825 12.6635
lfingers 7.12502
lthumb 8.28721 42.4809
rfemur -5.40399 6.70698 24.0056
rtibia 35.3296
rfoot -26.9357 -12.5429
rtoes 1.85192
lfemur 2.35028 4.63953 -16.3025
ltibia 20.0157
lfoot -17.4563 4.44702
ltoes -6.72775
138
root 49.4979 16.1686 -5.4717 132.419 -87.9655 -135.217
lowerback -1.97946 -0.271226 2.89753
upperback 1.4131 -0.444373 -0.48366
thorax 2.53654 -0.167538 -2.14029
lowerneck -5.18736 -0.286972 0.706692
upperneck 1.96155 -0.588756 3.85061
head 1.49971 -0.22078 1.06709
rclavicle -8.03214e-015 -3.18055e-015
rhumerus -35.015 -12.8828 -83.0104
rradius 25.6525
rwrist 2.81673
rhand -19.1037 -7.31135
rfingers 7.12502
rthumb 7.2051 -37.1687
lclavicle -8.03214e-015 -3.18055e-015
lhumerus -35.2965 9.4062 80.257
lradius 22.9633
lwrist 14.3114
lhand -17.9995 12.6783
lfingers 7.12502
lthumb 8.27081 42.4964
rfemur -5.28976 6.69618 23.973
rtibia 35.2219
rfoot -26.6421 -12.5129
rtoes 1.9502
lfemur 2.4289 4.62896 -16.3274
ltibia 19.9789
lfoot -17.1325 4.38902
ltoes -7.1679
139
root 49.472 16.1858 -5.46712 132.729 -87.9776 -135.513
lowerback -1.96837 -0.278449 2.86122
upperback 1.37869 -0.451722 -0.48992
thorax 2.49455 -0.172747 -2.12637
lowerneck -5.24295 -0.289235 0.703308
upperneck 2.02311 -0.593882 3.83146
head 1.52926 -0.222037 1.06196
rclavicle 1.05604e-015 2.5842e-015
rhumerus -35.0432 -12.9411 -82.975
rradius 25.6036
rwrist 2.85337
rhand -19.124 -7.35204
rfingers 7.12502
rthumb 7.18545 -37.2101
lclavicle 1.05604e-015 2.5842e-015
lhumerus -35.3633 9.55659 80.1395
lradius 22.919
lwrist 14.2342
lhand -18.0208 12.681
lfingers 7.12502
lthumb 8.25023 42.4999
rfemur -5.16727 6.66299 23.9337
rtibia 35.1053
rfoot -26.3173 -12.4786
rtoes 1.86325
lfemur 2.50392 4.61919 -16.3545
ltibia 19.9501
lfoot -16.7545 4.3478
ltoes -7.76674
140
root 49.447 16.2061 -5.46232 133.043 -87.995 -135.822
lowerback -1.94046 -0.282942 2.82656
upperback 1.35043 -0.455073 -0.499447
thorax 2.44966 -0.175888 -2.11648
lowerneck -5.30259 -0.29831 0.70485
upperneck 2.08172 -0.608387 3.81122
head 1.55874 -0.227994 1.05537
rclavicle -4.35463e-015 -1.03368e-014
rhumerus -35.0657 -13.0091 -82.9402
rradius 25.5525
rwrist 2.89984
rhand -19.1463 -7.37397
rfingers 7.12502
rthumb 7.16389 -37.2327
lclavicle -4.35463e-015 -1.03368e-014
lhumerus -35.4106 9.70147 80.0276
lradius 22.8806
lwrist 14.1553
lhand -18.0371 12.6762
lfingers 7.12502
lthumb 8.2345 42.4957
rfemur -5.037 6.60634 23.8825
rtibia 34.9809
rfoot -25.937 -12.441
rtoes 1.58706
lfemur 2.58017 4.62272 -16.3843
ltibia 19.9261
lfoot -16.3222 4.31354
ltoes -8.51097
141
root 49.4229 16.2295 -5.45715 133.414 -88.0125 -136.198
lowerback -1.8963 -0.283714 2.80041
upperback 1.32509 -0.453255 -0.513339
thorax 2.39885 -0.176325 -2.11554
lowerneck -5.34397 -0.311261 0.709034
upperneck 2.12823 -0.627553 3.79316
head 1.58119 -0.236622 1.04874
rclavicle 9.41121e-016 1.59028e-015
rhumerus -35.0918 -13.0848 -82.9072
rradius 25.498
rwrist 2.95535
rhand -19.1679 -7.38398
rfingers 7.12502
rthumb 7.14306 -37.2434
lclavicle 9.41121e-016 1.59028e-015
lhumerus -35.4468 9.8364 79.9195
lradius 22.8463
lwrist 14.0803
lhand -18.0551 12.6747
lfingers 7.12502
lthumb 8.21714 42.4949
rfemur -4.8995 6.52732 23.82
rtibia 34.8517
rfoot -25.4862 -12.4012
rtoes 1.11597
lfemur 2.66429 4.65006 -16.41
ltibia 19.9036
lfoot -15.8432 4.2572
ltoes -9.29837
142
root 49.3997 16.2565 -5.45162 133.786 -88.0289 -136.584
lowerback -1.84062 -0.282505 2.78229
upperback 1.30523 -0.448835 -0.52828
thorax 2.3473 -0.175282 -2.12004
lowerneck -5.36271 -0.319706 0.71074
upperneck 2.1415 -0.639196 3.78067
head 1.58887 -0.242218 1.04427
rclavicle 7.04754e-015 -1.19271e-015
rhumerus -35.111 -13.1633 -82.8762
rradius 25.4352
rwrist 3.02589
rhand -19.1919 -7.39112
rfingers 7.12502
rthumb 7.11987 -37.2514
lclavicle 7.04754e-015 -1.19271e-015
lhumerus -35.4715 9.97309 79.8162
lradius 22.8172
lwrist 14.0016
lhand -18.0767 12.6609
lfingers 7.12502
lthumb 8.19631 42.4819
rfemur -4.76276 6.42294 23.7471
rtibia 34.7227
rfoot -24.9558 -12.3615
rtoes 0.454584
lfemur 2.75305 4.70695 -16.4264
ltibia 19.8793
lfoot -15.3094 4.16955
ltoes -10.1272
143
root 49.3774 16.2871 -5.44576 134.332 -88.0449 -137.152
lowerback -1.77261 -0.278327 2.76914
upperback 1.28737 -0.440267 -0.546315
thorax 2.29107 -0.172118 -2.13028
lowerneck -5.35901 -0.326367 0.705778
upperneck 2.13413 -0.647234 3.77765
head 1.58598 -0.246468 1.04387
rclavicle 7.92033e-015 1.19271e-015
rhumerus -35.1298 -13.2397 -82.8485
rradius 25.3649
rwrist 3.10909
rhand -19.2157 -7.39369
rfingers 7.12502
rthumb 7.09693 -37.2547
lclavicle 7.92033e-015 1.19271e-015
lhumerus -35.49 10.1044 79.7183
lradius 22.7936
lwrist 13.9246
lhand -18.1046 12.6723
lfingers 7.12502
lthumb 8.16935 42.4943
rfemur -4.6296 6.2935 23.6553
rtibia 34.5989
rfoot -24.3612 -12.2797
rtoes -0.27184
lfemur 2.84544 4.80492 -16.4365
ltibia 19.8526
lfoot -14.7188 4.04401
ltoes -11.0107
144
root 49.356 16.3214 -5.43975 135.087 -88.0639 -137.933
lowerback -1.70237 -0.273495 2.75463
upperback 1.27371 -0.43079 -0.567133
thorax 2.23797 -0.168413 -2.14262
lowerneck -5.32779 -0.325965 0.696726
upperneck 2.09241 -0.644053 3.77944
head 1.56702 -0.24592 1.04578
rclavicle 1.22066e-015 -2.78299e-015
rhumerus -35.1369 -13.31 -82.8272
rradius 25.2836
rwrist 3.20622
rhand -19.2371 -7.41295
rfingers 7.12502
rthumb 7.07626 -37.2747
lclavicle 1.22066e-015 -2.78299e-015
lhumerus -35.4964 10.2379 79.6248
lradius 22.7717
lwrist 13.8487
lhand -18.1398 12.6962
lfingers 7.12502
lthumb 8.13545 42.5195
rfemur -4.50844 6.14291 23.5409
rtibia 34.4856
rfoot -23.7137 -12.1363
rtoes -0.979346
lfemur 2.93412 4.9291 -16.4444
ltibia 19.8228
lfoot -14.0617 3.88471
ltoes -11.9411
145
root 49.3354 16.3592 -5.43354 136.062 -88.0844 -138.932
lowerback -1.64139 -0.266979 2.73758
upperback 1.26749 -0.419421 -0.588607
thorax 2.19787 -0.163527 -2.15426
lowerneck -5.28859 -0.326081 0.683317
upperneck 2.04304 -0.640897 3.78289
head 1.54425 -0.245587 1.04889
rclavicle 2.38852e-015 3.77691e-015
rhumerus -35.1265 -13.3803 -82.8073
rradius 25.1903
rwrist 3.32369
rhand -19.2482 -7.43888
rfingers 7.12502
rthumb 7.0656 -37.3009
lclavicle 2.38852e-015 3.77691e-015
lhumerus -35.4841 10.3697 79.5436
lradius 22.7486
lwrist 13.776
lhand -18.185 12.7267
lfingers 7.12502
lthumb 8.09175 42.5518
rfemur -4.40323 5.96966 23.4036
rtibia 34.3842
rfoot -23.0199 -11.9335
rtoes -1.64758
lfemur 3.01299 5.06992 -16.4523
ltibia 19.7949
lfoot -13.3408 3.70384
ltoes -12.9165
146
root 49.3155 16.4002 -5.42719 137.265 -88.1067 -140.158
lowerback -1.58853 -0.259005 2.71712
upperback 1.26926 -0.406386 -0.611935
thorax 2.17066 -0.157575 -2.16596
lowerneck -5.25858 -0.329339 0.674791
upperneck 1.99842 -0.642402 3.78056
head 1.52465 -0.247475 1.04925
rclavicle -8.16881e-015 -2.78299e-015
rhumerus -35.0967 -13.4519 -82.7921
rradius 25.0899
rwrist 3.45742
rhand -19.2477 -7.47967
rfingers 7.12502
rthumb 7.06609 -37.3417
lclavicle -8.16881e-015 -2.78299e-015
lhumerus -35.4461 10.503 79.4722
lradius 22.7178
lwrist 13.7028
lhand -18.2294 12.759
lfingers 7.12502
lthumb 8.04892 42.5857
rfemur -4.31537 5.78027 23.245
rtibia 34.2944
rfoot -22.2863 -11.6742
rtoes -2.23166
lfemur 3.07508 5.21935 -16.4642
ltibia 19.7748
lfoot -12.5554 3.51986
ltoes -13.9948
147
root 49.2963 16.4436 -5.42078 138.583 -88.1231 -141.495
lowerback -1.55538 -0.248288 2.6982
upperback 1.28029 -0.390484 -0.633638
thorax 2.16424 -0.149774 -2.17695
lowerneck -5.23284 -0.329253 0.670248
upperneck 1.95468 -0.639637 3.77311
head 1.50596 -0.247233 1.04745
rclavicle 4.19311e-015 -7.95139e-016
rhumerus -35.0503 -13.5301 -82.7767
rradius 24.9827
rwrist 3.6086
rhand -19.2329 -7.50996
rfingers 7.12502
rthumb 7.08036 -37.3715
lclavicle 4.19311e-015 -7.95139e-016
lhumerus -35.3862 10.6357 79.4135
lradius 22.6843
lwrist 13.6319
lhand -18.2667 12.7806
lfingers 7.12502
lthumb 8.01291 42.6087
rfemur -4.24366 5.5814 23.0765
rtibia 34.2116
rfoot -21.5157 -11.3766
rtoes -2.75505
lfemur 3.11474 5.36683 -16.4732
ltibia 19.7716
lfoot -11.7193 3.33372
ltoes -15.0877
148
root 49.2775 16.4892 -5.41437 140.006 -88.136 -142.931
lowerback -1.54534 -0.235007 2.67545
upperback 1.30101 -0.371906 -0.652535
thorax 2.18098 -0.140278 -2.18302
lowerneck -5.23487 -0.331657 0.669145
upperneck 1.94038 -0.641709 3.75932
head 1.50164 -0.248712 1.04315
rclavicle -1.16475e-015 1.39149e-015
rhumerus -34.9858 -13.6118 -82.761
rradius 24.8756
rwrist 3.77382
rhand -19.2019 -7.54219
rfingers 7.12502
rthumb 7.11029 -37.4028
lclavicle -1.16475e-015 1.39149e-015
lhumerus -35.3036 10.7641 79.3719
lradius 22.6545
lwrist 13.5694
lhand -18.286 12.7794
lfingers 7.12502
lthumb 7.99429 42.6082
rfemur -4.19176 5.37151 22.8993
rtibia 34.1316
rfoot -20.6975 -11.0705
rtoes -3.27164
lfemur 3.1232 5.5089 -16.4836
ltibia 19.7924
lfoot -10.842 3.15299
ltoes -16.1864
149
root 49.2592 16.5366 -5.40809 141.25 -88.1444 -144.176
lowerback -1.55552 -0.220349 2.65757
upperback 1.32288 -0.352207 -0.668784
thorax 2.21034 -0.129961 -2.1892
lowerneck -5.25481 -0.338464 0.673067
upperneck 1.9634 -0.651467 3.7427
head 1.51255 -0.253234 1.03711
rclavicle -3.53153e-015 3.97569e-016
rhumerus -34.9194 -13.6999 -82.7454
rradius 24.7739
rwrist 3.94202
rhand -19.155 -7.56746
rfingers 7.12502
rthumb 7.15549 -37.4265
lclavicle -3.53153e-015 3.97569e-016
lhumerus -35.2139 10.8766 79.3451
lradius 22.637
lwrist 13.5243
lhand -18.2864 12.7797
lfingers 7.12502
lthumb 7.99392 42.6086
rfemur -4.15831 5.15516 22.7256
rtibia 34.0478
rfoot -19.8377 -10.7737
rtoes -3.76431
lfemur 3.09254 5.64886 -16.486
ltibia 19.8452
lfoot -9.93249 2.975
ltoes -17.2887
150
root 49.2411 16.5855 -5.40199 142.245 -88.1464 -145.16
lowerback -1.58792 -0.205894 2.64513
upperback 1.34527 -0.333591 -0.679363
thorax 2.25268 -0.119938 -2.19277
lowerneck -5.28542 -0.341657 0.677813
upperneck 2.01257 -0.657409 3.7239
head 1.53367 -0.255334 1.03052
rclavicle -7.29602e-015 -6.75868e-015
rhumerus -34.8508 -13.7796 -82.7326
rradius 24.6832
rwrist 4.09936
rhand -19.0948 -7.58901
rfingers 7.12502
rthumb 7.21364 -37.4461
lclavicle -7.29602e-015 -6.75868e-015
lhumerus -35.1313 10.9636 79.3374
lradius 22.6511
lwrist 13.5112
lhand -18.2664 12.7733
lfingers 7.12502
lthumb 8.01324 42.6014
rfemur -4.14296 4.93328 22.5612
rtibia 33.9565
rfoot -18.9418 -10.4994
rtoes -4.23438
lfemur 3.02135 5.78411 -16.4776
ltibia 19.9316
lfoot -9.00186 2.80033
ltoes -18.3334
